STARTFONT 2.1
FONT -FontForge-Meteocons-Book-R-Normal--48-350-100-100-P-471-ISO10646-1
SIZE 35 100 100
FONTBOUNDINGBOX 48 48 0 -3
COMMENT "Generated by fontforge, http://fontforge.sourceforge.net"
STARTPROPERTIES 35
FOUNDRY "FontForge"
FAMILY_NAME "Meteocons"
WEIGHT_NAME "Book"
SLANT "R"
SETWIDTH_NAME "Normal"
ADD_STYLE_NAME ""
PIXEL_SIZE 48
POINT_SIZE 350
RESOLUTION_X 100
RESOLUTION_Y 100
SPACING "P"
AVERAGE_WIDTH 471
CHARSET_REGISTRY "ISO10646"
CHARSET_ENCODING "1"
FONTNAME_REGISTRY ""
CHARSET_COLLECTIONS "ISO10646-1"
FONT_NAME "Meteocons"
FACE_NAME "Meteocons Regular"
FONT_VERSION "1.00"
FONT_ASCENT 45
FONT_DESCENT 3
UNDERLINE_POSITION 0
UNDERLINE_THICKNESS 0
CAP_HEIGHT 44
RAW_ASCENT 937
RAW_DESCENT 62
RELATIVE_WEIGHT 40
RELATIVE_SETWIDTH 50
SUPERSCRIPT_X 0
SUPERSCRIPT_Y 22
SUPERSCRIPT_SIZE 33
SUBSCRIPT_X 0
SUBSCRIPT_Y 6
SUBSCRIPT_SIZE 33
AVG_UPPERCASE_WIDTH 481
ENDPROPERTIES
CHARS 50
STARTCHAR exclam
ENCODING 33
SWIDTH 1000 0
DWIDTH 48 0
BBX 48 42 0 0
BITMAP
0000001FC000
0000007FF000
000001FFFC00
000003FFFE00
00003FFFFFE0
00007FFFFFF0
0000FFFFFFF8
0001FFFFFFFC
0003FFFFFFFE
1FF3FFFFFFFE
1FF7FFFFFFFF
1FF7FFFFFFFF
0007FFFFFFFF
0007FFFFFFFF
0007FFFFFFFF
FF87FFFFFFFF
FF83FFFFFFFE
FF83FFFFFFFE
0001FFFFFFFC
0000FFFFFFF8
00007FFFFFF0
FFFE3FFFFFE0
FFFE00FFF000
FFFE001FC000
000000000000
000000000000
000000000000
000001000000
000001800000
000003C00000
000003C00000
000007E00000
000007E00000
000007E01000
000007E01800
000003C03C00
000000003C00
000000007E00
000000007E00
000000007E00
000000007E00
000000003C00
ENDCHAR
STARTCHAR quotedbl
ENCODING 34
SWIDTH 1000 0
DWIDTH 48 0
BBX 48 48 0 -3
BITMAP
00000FF00000
00007FFE0000
0000FFFF0000
0003FFFFC000
0007FFFFE000
000FFFFFF000
01FFFFFFFF80
07FFFFFFFFE0
0FFFFFFFFFF0
1FFFFFFFFFF8
3FFFFFFFFFFC
7FFFFFFFFFFE
7FFFFFFFFFFE
FFFFFFFFFFFF
FFFFFFFFFFFF
FFFFFFFFFFFF
FFFFFFFFFFFF
FFFFFFFFFFFF
FFFFFFFFFFFF
FFFFFFFFFFFF
7FFFFFFFFFFE
7FFFFFFFFFFE
3FFFFFFFFFFC
1FFFFFFFFFF8
0FFFFFFFFFF0
07FFFFFFFFE0
01FFFFFFFF80
0000FFFF0000
00007FFE0000
00000FF00000
000000000000
000001000000
000003800000
000003800000
000003800000
000077DC0000
0000FFFE0000
00007FFC0000
00003E780000
00001C300000
00001E700000
00007FFC0000
0000FFFE0000
0000FFFE0000
0000638C0000
000003800000
000003800000
000003800000
ENDCHAR
STARTCHAR numbersign
ENCODING 35
SWIDTH 1000 0
DWIDTH 48 0
BBX 48 48 0 -3
BITMAP
00000FF00000
00007FFE0000
0000FFFF0000
0003FFFFC000
0007FFFFE000
000FFFFFF000
01FFFFFFFF80
07FFFFFFFFE0
0FFFFFFFFFF0
1FFFFFFFFFF8
3FFFFFFFFFFC
7FFFFFFFFFFE
7FFFFFFFFFFE
FFFFFFFFFFFF
FFFFFFFFFFFF
FFFFFFFFFFFF
FFFFFFFFFFFF
FFFFFFFFFFFF
FFFFFFFFFFFF
FFFFFFFFFFFF
7FFFFFFFFFFE
7FFFFFFFFFFE
3FFFFFFFFFFC
1FFFFFFFFFF8
0FFFFFFFFFF0
07FFFFFFFFE0
01FFFFFFFF80
0000FFFF0000
00007FFE0000
00800FF00000
08C000000000
0F8001000000
07F003800100
06F003800310
1EC0038001F0
1FC077DC0FE0
03E0FFFE0F60
03207FFC0278
02003E7803F8
00001C3007C0
00001E7004C0
00007FFC0040
0000FFFE0000
0000FFFE0000
0000638C0000
000003800000
000003800000
000003800000
ENDCHAR
STARTCHAR dollar
ENCODING 36
SWIDTH 1000 0
DWIDTH 48 0
BBX 48 48 0 -3
BITMAP
00000FF00000
00007FFE0000
0000FFFF0000
0003FFFFC000
0007FFFFE000
000FFFFFF000
01FFFFFFFF80
07FFFFFFFFE0
0FFFFFFFFFF0
1FFFFFFFFFF8
3FFFFFFFFFFC
7FFFFFFFFFFE
7FFFFFFFFFFE
FFFFFFFFFFFF
FFFFFFFFFFFF
FFFFFFFFFFFF
FFFFFFFFFFFF
FFFFFFFFFFFF
FFFFFFFFFFFF
FFFFFFFFFFFF
7FFFFFFFFFFE
7FFFFFFFFFFE
3FFFFFFFFFFC
1FFFFFFFFFF8
0FFFFFFFFFF0
07FFFFFFFFE0
01FFFFFFFF80
0000FFFF0000
00007FFE0000
00000FF00000
01E000000780
03F000000FC0
03F000000FC0
03F003C00FC0
03F007E00FC0
01E007E00780
000007E00000
000007E00000
000003C00000
000000000000
000000000000
000000000000
00078001E000
000FC003F000
000FC003F000
000FC003F000
000FC003F000
00078001E000
ENDCHAR
STARTCHAR percent
ENCODING 37
SWIDTH 1000 0
DWIDTH 48 0
BBX 48 38 0 2
BITMAP
0000001FC000
000000FFF000
000001FFF800
000003FFFC00
00003FFFFFC0
0000FFFFFFF0
0001FFFFFFF8
0003FFFFFFFC
0007FFFFFFFE
0007FFFFFFFF
000FFFFFFFFF
000FFFFFFFFF
000FFFFFFFFF
000FFFFFFFFF
01FFFFFFFFFF
07FFFFFFFFFF
0FFFFFFFFFFE
1FFFFFFFFFFC
3FFFFFFFFFFC
7FFFFFFFFFFE
7FFFFFFFFFFE
7FFFFFFFFFFF
FFFFFFFFFFFF
FFFFFFFFFFFF
FFFFFFFFFFFF
FFFFFFFFFFFF
FFFFFFFFFFFF
FFFFFFFFFFFF
7FFFFFFFFFFE
7FFFFFFFFFFE
3FFFFFFFFFFC
1FFFFFFFFFF8
0FFFFFFFFFF0
07FFFFFFFFE0
01FFFFFFFF80
0000FFFF0000
00007FFE0000
00000FF00000
ENDCHAR
STARTCHAR ampersand
ENCODING 38
SWIDTH 1000 0
DWIDTH 48 0
BBX 48 48 0 -3
BITMAP
0000001F8000
000000FFF000
000001FFF800
000003FFFC00
00001FFFFFC0
0000FFFFFFF0
0001FFFFFFF8
0003FFFFFFFC
0007FFFFFFFE
0007FFFFFFFE
000FFFFFFFFF
000FFFFFFFFF
000FFFFFFFFF
000FFFFFFFFF
00FFFFFFFFFF
07FFFFFFFFFF
0FFFFFFFFFFE
1FFFFFFFFFFC
3FFFFFFFFFFC
7FFFFFFFFFFE
7FFFFFFFFFFE
FFFFFFFFFFFF
FFFFFFFFFFFF
FFFFFFFFFFFF
FFFFFFFFFFFF
FFFFFFFFFFFF
FFFFFFFFFFFF
FFFFFFFFFFFF
7FFFFFFFFFFE
7FFFFFFFFFFE
3FFFFFFFFFFC
1FFFFFFFFFF8
0FFFFFFFFFF0
07FFFFFFFFE0
01FFFFFFFF80
0000FFFF0000
00007FFE0000
00000FF00000
00001F000000
00003F800000
00001FC00000
00000FE00000
000007C00000
00000F800000
00000E000000
00001C000000
000010000000
000020000000
ENDCHAR
STARTCHAR quotesingle
ENCODING 39
SWIDTH 1000 0
DWIDTH 48 0
BBX 12 42 18 0
BITMAP
0F00
1F80
1F80
1F80
1F80
1F80
1F80
1F80
1F80
1F80
1F80
1F80
1F80
1F80
1F80
1F80
1F80
1F80
1F80
1F80
1F80
1F80
1F80
1F80
1F80
1F80
1F80
1F80
1F80
1F80
1F80
3FC0
7FE0
FFF0
FFF0
FFF0
FFF0
FFF0
7FE0
7FE0
3FC0
1F00
ENDCHAR
STARTCHAR parenleft
ENCODING 40
SWIDTH 1000 0
DWIDTH 48 0
BBX 48 48 0 -3
BITMAP
00001FF80000
0001FFFF8000
0007FFFFE000
001FFFFFF800
003FFFFFFC00
007FFFFFFE00
00FFF00FFF00
01FF8001FF80
03FE00007FC0
07F800001FE0
0FF000000FF0
1FE0000007F8
1FC0000003F8
3F80000001FC
3F80000001FC
7F00000080FE
7F00000300FE
7E00000F007E
7E00003E007E
FE0000FE007F
FC0003FC003F
FC0007FC003F
FC000FF8003F
FC000FF8003F
FC001FF0003F
FC001FF0003F
FC003FE0003F
FC003FC0003F
FE007F00007F
7E007C00007E
7E00F000007E
7F00C00000FE
7F01000000FE
3F80000001FC
3F80000001FC
1FC0000003F8
1FE0000007F8
0FF000000FF0
07F800001FE0
03FE00007FC0
01FF8001FF80
00FFF00FFF00
007FFFFFFE00
003FFFFFFC00
001FFFFFF800
0007FFFFE000
0001FFFF8000
00001FF80000
ENDCHAR
STARTCHAR parenright
ENCODING 41
SWIDTH 1000 0
DWIDTH 48 0
BBX 38 18 5 12
BITMAP
00000E0700
F0380C0780
F0380C0F80
F8381C0F80
FC38180FC0
FC38181DC0
FE38381DC0
FF38301CE0
EF383038E0
E7B87038F0
E3F8607870
E3F8607FF0
E1F8E07FF8
E0F8C0FFF8
E0F9C0F038
E079C0E03C
E03981E03C
0003800000
ENDCHAR
STARTCHAR asterisk
ENCODING 42
SWIDTH 1000 0
DWIDTH 48 0
BBX 21 17 13 13
BITMAP
100000
7E07E0
6E0FF8
C71FF0
C73C30
6E3800
7E3800
103800
003800
003800
003800
003800
003800
003C30
001FF8
000FF8
0007E0
ENDCHAR
STARTCHAR plus
ENCODING 43
SWIDTH 1000 0
DWIDTH 48 0
BBX 22 16 13 13
BITMAP
7C1FFC
7E1FFC
C71FFC
C71C00
6E1C00
7E1C00
181C00
001FF8
001FF8
001FF8
001C00
001C00
001C00
001C00
001C00
001C00
ENDCHAR
STARTCHAR zero
ENCODING 48
SWIDTH 1000 0
DWIDTH 49 0
BBX 48 48 0 -3
BITMAP
0000003FC000
000000FFF000
000003FFFC00
000007C03E00
00003F801FC0
0000FF000FF0
0003FE0007FC
0003C000003C
00078FF0001E
00077FFE000F
000EFFFF0007
000FF01FC007
000FC003E007
000F8001F007
01FF0000FF87
07FE00007FEE
0FFC00003FFE
1F08000020FC
3C000000003C
78000000001E
70000000000E
F0000000000F
E00000000007
E00000000007
E00000000007
E00000000007
E00000000007
F0000000000F
70000000000E
78000000001E
3C000020003C
1F070040E0F8
0FFF81C1FFF0
07FF0383FFE0
01FE0F8FBF80
00001F0F0000
00003F840000
00001FC00000
00000FE00000
000007E00000
00000FC00000
00000F800000
00000F000000
00001E000000
00001C000000
000018000000
000030000000
000020000000
ENDCHAR
STARTCHAR one
ENCODING 49
SWIDTH 1000 0
DWIDTH 48 0
BBX 40 40 4 1
BITMAP
0000080000
00001C0000
00001C0000
00001C0000
00001C0000
00001C0000
03800801C0
03C00003C0
03E00007C0
01E0100780
00C0FF0300
0003FFC000
0007FFE000
000FFFF000
001FFFF800
003FFFF800
003FFFFC00
003FFFFC00
7C3FFFFC3E
FE7FFFFC7F
7C7FFFFE3E
003FFFFC00
003FFFFC00
003FFFFC00
003FFFFC00
001FFFF800
000FFFF000
0007FFE000
0003FFC000
00C1FF0300
01E0180780
03E00007C0
03C00003C0
03800801C0
00001C0000
00001C0000
00001C0000
00001C0000
00001C0000
0000080000
ENDCHAR
STARTCHAR two
ENCODING 50
SWIDTH 1000 0
DWIDTH 48 0
BBX 20 20 14 11
BITMAP
020000
0C0000
1C0000
3C0000
7C0000
7C0000
FE0000
FE0000
FE0000
FF0000
FF8000
FFC000
FFE000
FFF810
7FFFF0
7FFFE0
3FFFE0
1FFFC0
0FFF00
03FE00
ENDCHAR
STARTCHAR three
ENCODING 51
SWIDTH 1000 0
DWIDTH 48 0
BBX 48 48 0 -3
BITMAP
000038000000
000038000000
000038000000
000038000000
000038000000
030038018000
07800003C000
07C00007C000
03C000078000
01C0FE070000
0003FF800000
0007FFC00000
000F83E00000
001E00F00000
003C00780000
003800380000
0078003C0000
0070001C0000
FC700FFC7E00
FC707FFC7E00
FC70FFFF7E00
0073FFFFC000
007FFFFFE000
003FFFFFF000
01FFFFFFFF80
07FFFFFFFFE0
0FFFFFFFFFF0
1FFFFFFFFFF8
3FFFFFFFFFFC
7FFFFFFFFFFE
7FFFFFFFFFFE
FFFFFFFFFFFF
FFFFFFFFFFFF
FFFFFFFFFFFF
FFFFFFFFFFFF
FFFFFFFFFFFF
FFFFFFFFFFFF
FFFFFFFFFFFF
7FFFFFFFFFFE
7FFFFFFFFFFE
3FFFFFFFFFFC
1FFFFFFFFFF8
0FFFFFFFFFF0
07FFFFFFFFE0
01FFFFFFFF80
0000FFFF0000
00007FFE0000
00000FF00000
ENDCHAR
STARTCHAR four
ENCODING 52
SWIDTH 1000 0
DWIDTH 48 0
BBX 48 44 0 -3
BITMAP
0000000F0000
0000003F0000
0000007E0000
000000FE0000
000000EE0000
000001EE0000
000001CE0000
0000038E0000
000003870000
000003870000
000003878000
00000383C000
00000381F000
00000380FC78
00000FF07FF8
00007FFE1FF8
0000FFFF03F0
0003FFFFC0F0
0007FFFFE1E0
000FFFFFFFC0
01FFFFFFFF80
07FFFFFFFFE0
0FFFFFFFFFF0
1FFFFFFFFFF8
3FFFFFFFFFFC
7FFFFFFFFFFE
7FFFFFFFFFFE
FFFFFFFFFFFF
FFFFFFFFFFFF
FFFFFFFFFFFF
FFFFFFFFFFFF
FFFFFFFFFFFF
FFFFFFFFFFFF
FFFFFFFFFFFF
7FFFFFFFFFFE
7FFFFFFFFFFE
3FFFFFFFFFFC
1FFFFFFFFFF8
0FFFFFFFFFF0
07FFFFFFFFE0
01FFFFFFFF80
0000FFFF0000
00007FFE0000
00000FF00000
ENDCHAR
STARTCHAR five
ENCODING 53
SWIDTH 1000 0
DWIDTH 48 0
BBX 48 30 0 6
BITMAP
00000FF00000
00007FFE0000
0000FFFF0000
0003FFFFC000
0007FFFFE000
000FFFFFF000
01FFFFFFFF80
07FFFFFFFFE0
0FFFFFFFFFF0
1FFFFFFFFFF8
3FFFFFFFFFFC
7FFFFFFFFFFE
7FFFFFFFFFFE
FFFFFFFFFFFF
FFFFFFFFFFFF
FFFFFFFFFFFF
FFFFFFFFFFFF
FFFFFFFFFFFF
FFFFFFFFFFFF
FFFFFFFFFFFF
7FFFFFFFFFFE
7FFFFFFFFFFE
3FFFFFFFFFFC
1FFFFFFFFFF8
0FFFFFFFFFF0
07FFFFFFFFE0
01FFFFFFFF80
0000FFFF0000
00007FFE0000
00000FF00000
ENDCHAR
STARTCHAR six
ENCODING 54
SWIDTH 1000 0
DWIDTH 48 0
BBX 48 45 0 0
BITMAP
00000FF00000
00007FFE0000
0000FFFF0000
0003FFFFC000
0007FFFFE000
000FFFFFF000
01FFFFFFFF80
07FFFFFFFFE0
0FFFFFFFFFF0
1FFFFFFFFFF8
3FFFFFFFFFFC
7FFFFFFFFFFE
7FFFFFFFFFFE
FFFFFFFFFFFF
FFFFFFFFFFFF
FFFFFFFFFFFF
FFFFFFFFFFFF
FFFFFFFFFFFF
FFFFFFFFFFFF
FFFFFFFFFFFF
7FFFFFFFFFFE
7FFFFFFFFFFE
3FFFFFFFFFFC
1FFFFFFFFFF8
0FFFFFFFFFF0
07FFFFFFFFE0
01FFFFFFFF80
0000FFFF0000
00007FFE0000
00000FF00000
00000F800000
00001F800000
00003F000000
00003F800000
00001FC00000
00000FE00000
000007E00000
00000FC00000
00000F800000
00000F000000
00001E000000
00001C000000
000018000000
000030000000
000020000000
ENDCHAR
STARTCHAR seven
ENCODING 55
SWIDTH 1000 0
DWIDTH 48 0
BBX 48 42 0 0
BITMAP
00000FF00000
00007FFE0000
0000FFFF0000
0003FFFFC000
0007FFFFE000
000FFFFFF000
01FFFFFFFF80
07FFFFFFFFE0
0FFFFFFFFFF0
1FFFFFFFFFF8
3FFFFFFFFFFC
7FFFFFFFFFFE
7FFFFFFFFFFE
FFFFFFFFFFFF
FFFFFFFFFFFF
FFFFFFFFFFFF
FFFFFFFFFFFF
FFFFFFFFFFFF
FFFFFFFFFFFF
FFFFFFFFFFFF
7FFFFFFFFFFE
7FFFFFFFFFFE
3FFFFFFFFFFC
1FFFFFFFFFF8
0FFFFFFFFFF0
07FFFFFFFFE0
01FFFFFFFF80
0000FFFF0000
00007FFE0000
00000FF00000
000000000000
000000000000
000000000000
000001000000
000001800000
000003C00000
000003C00000
000007E00000
000007E00000
000007E00000
000007E00000
000003C00000
ENDCHAR
STARTCHAR eight
ENCODING 56
SWIDTH 1000 0
DWIDTH 48 0
BBX 48 48 0 -3
BITMAP
00000FF00000
00007FFE0000
0000FFFF0000
0003FFFFC000
0007FFFFE000
000FFFFFF000
01FFFFFFFF80
07FFFFFFFFE0
0FFFFFFFFFF0
1FFFFFFFFFF8
3FFFFFFFFFFC
7FFFFFFFFFFE
7FFFFFFFFFFE
FFFFFFFFFFFF
FFFFFFFFFFFF
FFFFFFFFFFFF
FFFFFFFFFFFF
FFFFFFFFFFFF
FFFFFFFFFFFF
FFFFFFFFFFFF
7FFFFFFFFFFE
7FFFFFFFFFFE
3FFFFFFFFFFC
1FFFFFFFFFF8
0FFFFFFFFFF0
07FFFFFFFFE0
01FFFFFFFF80
0000FFFF0000
00007FFE0000
00000FF00000
001000000000
001800000000
003C00000000
003C00000000
007E00000000
007E00000000
007E00001000
007E00001800
003C00003C00
000001003C00
000001807E00
000003C07E00
000003C07E00
000007E07E00
000007E03C00
000007E00000
000007E00000
000003C00000
ENDCHAR
STARTCHAR nine
ENCODING 57
SWIDTH 1000 0
DWIDTH 48 0
BBX 48 24 0 9
BITMAP
0000001FC000
0000007FF800
000001FFFC00
000003FFFE00
00003FFFFFE0
00007FFFFFF0
0000FFFFFFF8
0001FFFFFFFC
0003FFFFFFFE
1FF3FFFFFFFE
1FF7FFFFFFFF
1FF7FFFFFFFF
0007FFFFFFFF
0007FFFFFFFF
0007FFFFFFFF
FF87FFFFFFFF
FF83FFFFFFFE
FF83FFFFFFFE
0001FFFFFFFC
0000FFFFFFF8
00007FFFFFF0
FFFE1FFFFFC0
FFFE007FF000
FFFE001FC000
ENDCHAR
STARTCHAR A
ENCODING 65
SWIDTH 1000 0
DWIDTH 48 0
BBX 28 30 10 6
BITMAP
00070000
00070000
00070000
00070000
00070000
40070020
E0000070
F00000F0
780001E0
381F81C0
007FE000
01FFF800
03E07C00
07801E00
07000E00
0F000F00
0E000700
0E000700
00000000
00000000
00000000
0FFFFF00
1FFFFF80
0FFFFF00
00000000
00000000
00000000
01FFF800
03FFFC00
01FFF800
ENDCHAR
STARTCHAR B
ENCODING 66
SWIDTH 1000 0
DWIDTH 48 0
BBX 40 40 4 1
BITMAP
0000080000
00001C0000
00001C0000
00001C0000
00001C0000
00001C0000
03800801C0
03C00003C0
03E00007C0
01E0100780
00C0FF0300
0003FFC000
0007FFE000
000F00F000
001E007800
003C003800
0038001C00
0038001C00
7C38001C3E
FE78001C7F
7C78001E3E
0038001C00
0038001C00
0038001C00
003C003C00
001E007800
000F00F000
0007FFE000
0003FFC000
00C1FF0300
01E0180780
03E00007C0
03C00003C0
03800801C0
00001C0000
00001C0000
00001C0000
00001C0000
00001C0000
0000080000
ENDCHAR
STARTCHAR C
ENCODING 67
SWIDTH 1000 0
DWIDTH 48 0
BBX 24 24 12 9
BITMAP
008000
03C000
07C000
0FC000
1FC000
3DC000
79C000
71C000
71C000
F1E000
E0E000
E0F000
E07800
E03E00
701FFF
700FFF
7803FE
38001E
3C003C
1F0078
0FC3F0
07FFE0
01FFC0
003E00
ENDCHAR
STARTCHAR D
ENCODING 68
SWIDTH 1000 0
DWIDTH 48 0
BBX 36 39 6 0
BITMAP
0000380000
0000380000
0000380000
0000380000
0000380000
0300380000
0780000000
07C0000000
03C0000000
01C0FFF800
0003FFFE00
0007FFFF00
000FBFFF80
001E7FFFC0
003CFFFFE0
0038FFFFE0
0071FFFFF0
0071FFFFF0
FC71FFFFF0
FC71FFFFF0
FC71FFFFF0
0071FFFFF0
0079FFFFE0
0038FFFFE0
003CFFFFE0
001E7FFFC0
000FBFFF80
0007FFFF00
0083FFFE00
01C0FDF000
03C0000000
0780000000
0700000000
0200380000
0000380000
0000380000
0000380000
0000380000
0000380000
ENDCHAR
STARTCHAR E
ENCODING 69
SWIDTH 1000 0
DWIDTH 48 0
BBX 45 27 3 9
BITMAP
00001FC00000
0000FFF80000
0001FFFC0000
0007E03E0000
000F800F0000
000F00078000
FFFFFF03C000
FFFFFF01C000
FFFFFF00E000
00380000E000
00700000E000
007000007000
1FFFFFFFFFF8
1FFFFFFFFFF8
1FFFFFFFFFF8
007000007000
00700000E000
00380000E000
FFFFFFFFFC00
FFFFFFFFFE00
FFFFFFFFFC00
000F00078000
000F800F0000
0007E03E0000
0001FFFC0000
0000FFF80000
00001FC00000
ENDCHAR
STARTCHAR F
ENCODING 70
SWIDTH 1000 0
DWIDTH 48 0
BBX 39 27 6 6
BITMAP
0000780000
0000FE0000
0001FE0000
0001FF0000
0001FF0000
0001FF0000
FFFFFE00F8
FFFFFE01FC
FFFFF803FE
00000003FE
00000003FE
00000003FE
FFFFFFFFFE
FFFFFFFFFC
FFFFFFFFF8
0000000000
0000000000
0000000000
FFFFFFF000
FFFFFFF800
FFFFFFFC00
000007FC00
000007FC00
000007FC00
000007FC00
000003F800
000001F000
ENDCHAR
STARTCHAR G
ENCODING 71
SWIDTH 1000 0
DWIDTH 48 0
BBX 26 30 11 6
BITMAP
001E0000
003F0000
003F0000
003F0000
003F0000
003F0000
703F0380
FCFFCFC0
FFFFFFC0
FFFFFFC0
FFFFFFC0
7FFFFF80
1FE1FE00
0FC0FC00
0FC0FC00
0FC0FC00
0FC0FC00
1FE1FE00
7FFFFF80
FFFFFFC0
FFFFFFC0
FFFFFFC0
FCFFCFC0
703F0380
003F0000
003F0000
003F0000
003F0000
003F0000
001E0000
ENDCHAR
STARTCHAR H
ENCODING 72
SWIDTH 1000 0
DWIDTH 48 0
BBX 48 48 0 -3
BITMAP
000038000000
000038000000
000038000000
000038000000
000038000000
030038018000
07800003C000
07C00007C000
03C000078000
01C0FE070000
0003FF800000
0007FFC00000
000F83E00000
001E00F00000
003C00780000
003800380000
0078003C0000
0070001C0000
FC700FFC7E00
FC707FFE7E00
FC70FFFF7E00
0073F81FC000
007FC003E000
003F8001F000
01FF0000FF80
07FE00007FE0
0FFC00003FF0
1F08000020F8
3C000000003C
78000000001E
70000000000E
F0000000000F
E00000000007
E00000000007
E00000000007
E00000000007
E00000000007
F0000000000F
70000000000E
78000000001E
3C000000003C
1F070000E0F8
0FFF8001FFF0
07FFC003FFE0
01FFF81FFF80
0000FFFF0000
00007FFE0000
00000FF00000
ENDCHAR
STARTCHAR I
ENCODING 73
SWIDTH 1000 0
DWIDTH 48 0
BBX 48 44 0 -3
BITMAP
0000000F0000
0000003F0000
0000007E0000
000000FE0000
000000EE0000
000001EE0000
000001CE0000
0000038F0000
000003870000
000003878000
000003838000
00000383C000
00000381F000
00000380FE78
00000FF07FF8
00007FFE3FF8
0000FFFF07F0
0003F81FC0F0
0007C003C1E0
000F8001E3C0
01FF0000FF80
07FE00007FE0
0FFC00003FF0
1F08000020F8
3C000000003C
78000000001E
70000000000E
F0000000000F
E00000000007
E00000000007
E00000000007
E00000000007
E00000000007
F0000000000F
70000000000E
78000000001E
3C000000003C
1F070000E0F8
0FFF8001FFF0
07FFC003FFE0
01FDF80FFF80
0000FFFF0000
00007FFE0000
00000FF00000
ENDCHAR
STARTCHAR J
ENCODING 74
SWIDTH 1000 0
DWIDTH 49 0
BBX 40 39 4 3
BITMAP
00001C0000
00001C0000
00001C0000
00001C0000
00001C0000
03001C00C0
03800001C0
03C00003C0
01E0000780
00E07F0700
0001FFC000
0003FFE000
0007C1F000
000F007800
001E003C00
001C001C00
003C001E00
0038000E00
7C38000E3E
FE38000E7F
7C38000E3E
0000000000
0000000000
0000000000
7FFFFFFFFE
FFFFFFFFFF
7FFFFFFFFE
0000000000
0000000000
0000000000
7FFFFFFFFE
FFFFFFFFFF
7FFFFFFFFE
0000000000
0000000000
0000000000
7FFFFFFFFE
FFFFFFFFFF
7FFFFFFFFE
ENDCHAR
STARTCHAR K
ENCODING 75
SWIDTH 1000 0
DWIDTH 48 0
BBX 40 36 4 3
BITMAP
0000600000
0001E00000
0003E00000
0007E00000
000FE00000
001FE00000
001EE00000
003CE00000
0038E00000
0038F00000
0038780000
0078780000
00783E0000
00383F0000
00381FFF80
00380FFF80
001803FF00
001C00FF00
0002000800
0000000000
0000000000
7FFFFFFFFE
FFFFFFFFFF
7FFFFFFFFE
0000000000
0000000000
0000000000
7FFFFFFFFE
FFFFFFFFFF
7FFFFFFFFE
0000000000
0000000000
0000000000
7FFFFFFFFE
FFFFFFFFFF
7FFFFFFFFE
ENDCHAR
STARTCHAR L
ENCODING 76
SWIDTH 1000 0
DWIDTH 49 0
BBX 48 36 0 3
BITMAP
00000FF00000
00007FFE0000
0000FFFF0000
0003F81FC000
0007C003E000
000F8001F000
01FF0000FF80
07FE00007FE0
0FFC00003FF0
1F08000020F8
3C000000003C
78000000001E
70000000000E
F0000000000F
E00000000007
E00000000007
E00000000007
E00000000007
000000000000
000000000000
000000000000
FFFFFFFFFFFF
FFFFFFFFFFFF
FFFFFFFFFFFF
000000000000
000000000000
000000000000
FFFFFFFFFFFF
FFFFFFFFFFFF
FFFFFFFFFFFF
000000000000
000000000000
000000000000
FFFFFFFFFFFF
FFFFFFFFFFFF
FFFFFFFFFFFF
ENDCHAR
STARTCHAR M
ENCODING 77
SWIDTH 1000 0
DWIDTH 48 0
BBX 30 21 9 12
BITMAP
FFFFFFFC
FFFFFFFC
FFFFFFFC
00000000
00000000
00000000
FFFFFFFC
FFFFFFFC
FFFFFFFC
00000000
00000000
00000000
FFFFFFFC
FFFFFFFC
FFFFFFFC
00000000
00000000
00000000
FFFFFFFC
FFFFFFFC
FFFFFFFC
ENDCHAR
STARTCHAR N
ENCODING 78
SWIDTH 1000 0
DWIDTH 48 0
BBX 48 30 0 6
BITMAP
00000FF00000
00007FFE0000
0000FFFF0000
0003F81FC000
0007C003E000
000F8001F000
01FF0000FF80
07FE00007FE0
0FFC00003FF0
1F08000020F8
3C000000003C
78000000001E
70000000000E
F0000000000F
E00000000007
E00000000007
E00000000007
E00000000007
E00000000007
F0000000000F
70000000000E
78000000001E
3C000000003C
1F070000E0F8
0FFF8001FFF0
07FFC003FFE0
01FFF81FFF80
0000FFFF0000
00007FFE0000
00000FF00000
ENDCHAR
STARTCHAR O
ENCODING 79
SWIDTH 1000 0
DWIDTH 48 0
BBX 48 45 0 0
BITMAP
00000FF00000
00007FFE0000
0000FFFF0000
0003F81FC000
0007C003E000
000F8001F000
01FF0000FF80
07FE00007FE0
0FFC00003FF0
1F08000020F8
3C000000003C
78000000001E
70000000000E
F0000000000F
E00000000007
E00000000007
E00000000007
E00000000007
E00000000007
F0000000000F
70000000000E
78000000001E
3C000000003C
1F070000E0F8
0FFF8001FFF0
07FFC003FFE0
01FFF81FFF80
0000FFFF0000
00007FFE0000
00000FF00000
00000F800000
00001F800000
00003F000000
00003F800000
00001FC00000
00000FE00000
000007E00000
00000FC00000
00000F800000
00000F000000
00001E000000
00001C000000
000018000000
000030000000
000020000000
ENDCHAR
STARTCHAR P
ENCODING 80
SWIDTH 1000 0
DWIDTH 48 0
BBX 48 45 0 0
BITMAP
00000FF00000
00007FFE0000
0000FFFF0000
0003F81FC000
0007C003E000
000F8001F000
01FF0000FF80
07FE00007FE0
0FFC00003FF0
1F08000020F8
3C000000003C
78000000001E
70000000000E
F0000000000F
E00000000007
E00000000007
E00000000007
E00000000007
E00000000007
F0000000000F
70000000000E
78000000001E
3C000000003C
1F070000E0F8
0FFF8021FFF0
07FFC063FFE0
01FFF0C7FF80
0000E1C70000
000043C40000
000007880000
00000F800000
00001F800000
00003F000000
00003F800000
00001FC00000
00000FE00000
000007E00000
00000FC00000
00000F800000
00000F000000
00001E000000
00001C000000
000018000000
000030000000
000020000000
ENDCHAR
STARTCHAR Q
ENCODING 81
SWIDTH 1000 0
DWIDTH 48 0
BBX 48 42 0 0
BITMAP
00000FF00000
00007FFE0000
0000FFFF0000
0003F81FC000
0007C003E000
000F8001F000
01FF0000FF80
07FE00007FE0
0FFC00003FF0
1F08000020F8
3C000000003C
78000000001E
70000000000E
F0000000000F
E00000000007
E00000000007
E00000000007
E00000000007
E00000000007
F0000000000F
70000000000E
78000000001E
3C000000003C
1F070000E0F8
0FFF8001FFF0
07FFC003FFE0
01FFF81FFF80
0000FFFF0000
00007FFE0000
00000FF00000
000000000000
000000000000
000000000000
000001000000
000001800000
000003C00000
000003C00000
000007E00000
000007E00000
000007E00000
000007E00000
000003C00000
ENDCHAR
STARTCHAR R
ENCODING 82
SWIDTH 1000 0
DWIDTH 48 0
BBX 48 48 0 -3
BITMAP
00000FF00000
00007FFE0000
0000FFFF0000
0003F81FC000
0007C003E000
000F8001F000
01FF0000FF80
07FE00007FE0
0FFC00003FF0
1F08000020F8
3C000000003C
78000000001E
70000000000E
F0000000000F
E00000000007
E00000000007
E00000000007
E00000000007
E00000000007
F0000000000F
70000000000E
78000000001E
3C000000003C
1F070000E0F8
0FFF8001FFF0
07FFC003FFE0
01FFF81FFF80
0000FFFF0000
00007FFE0000
00000FF00000
001000000000
001800000000
003C00000000
003C00000000
007E00000000
007E00000000
007E00001000
007E00001800
003C00003C00
000001003C00
000001807E00
000003C07E00
000003C07E00
000007E07E00
000007E03C00
000007E00000
000007E00000
000003C00000
ENDCHAR
STARTCHAR S
ENCODING 83
SWIDTH 1000 0
DWIDTH 48 0
BBX 48 24 0 9
BITMAP
000000078000
0000007FF000
000000FFF800
000003F8FE00
00001FC01FC0
00007F800FF0
0000FF0007F8
0001F000007C
0003C000001E
1FF38000000E
1FF78000000F
1FF700000007
000700000007
000700000007
000700000007
FF878000000F
FF838000000E
FF83C000001E
0001F000007C
0000FFC01FF8
00007FF07FF0
FFFE1FFFFFC0
FFFE007FF000
FFFE001FC000
ENDCHAR
STARTCHAR T
ENCODING 84
SWIDTH 1000 0
DWIDTH 48 0
BBX 48 42 0 0
BITMAP
0000000F0000
0000007FF000
000000FFF800
000003F8FC00
00001FC01FC0
00007F800FF0
0000FF0007F8
0001F000007C
0003C000001E
1FF38000000E
1FF78000000F
1FF700000007
000700000007
000700000007
000700000007
FF878000000F
FF838000000E
FF83C000001E
0001F000007C
0000FFC01FF8
00007FF07FF0
FFFE1FFFFFC0
FFFE007FF000
FFFE000FC000
000000000000
000000000000
000000000000
000001000000
000001800000
000003C00000
000003C00000
000007E00000
000007E00000
000007E01000
000007E01800
000003C03C00
000000003C00
000000007E00
000000007E00
000000007E00
000000007E00
000000003C00
ENDCHAR
STARTCHAR U
ENCODING 85
SWIDTH 1000 0
DWIDTH 48 0
BBX 48 48 0 -3
BITMAP
00000FF00000
00007FFE0000
0000FFFF0000
0003F81FC000
0007C003E000
000F8001F000
01FF0000FF80
07FE00007FE0
0FFC00003FF0
1F08000020F8
3C000000003C
78000000001E
70000000000E
F0000000000F
E00000000007
E00000000007
E00000000007
E00000000007
E00000000007
F0000000000F
70000000000E
78000000001E
3C000000003C
1F070000E0F8
0FFF8001FFF0
07FFC003FFE0
01FFF81FFF80
0000FFFF0000
00007FFE0000
00000FF00000
000000000000
000001000000
000003800000
000003800000
000003800000
000077DC0000
0000FFFE0000
00007FFC0000
00003E780000
00001C300000
00001E700000
00007FFC0000
0000FFFE0000
0000FFFE0000
0000638C0000
000003800000
000003800000
000003800000
ENDCHAR
STARTCHAR V
ENCODING 86
SWIDTH 1000 0
DWIDTH 48 0
BBX 48 39 0 6
BITMAP
00000FF00000
00007FFE0000
0000FFFF0000
0003F81FC000
0007C003E000
000F8001F000
01FF0000FF80
07FE00007FE0
0FFC00003FF0
1F08000020F8
3C000000003C
78000000001E
70000000000E
F0000000000F
E00000000007
E00000000007
E00000000007
E00000000007
E00000000007
F0000000000F
70000000000E
78000000001E
3C000100003C
1F070380E0F8
0FFE03807FF0
07FC03803FE0
01FC77DC1F80
0000FFFE0000
00007FFC0000
00003E780000
00001C300000
00001E700000
00007FFC0000
0000FFFE0000
0000FFFE0000
0000638C0000
000003800000
000003800000
000003800000
ENDCHAR
STARTCHAR W
ENCODING 87
SWIDTH 1000 0
DWIDTH 48 0
BBX 48 48 0 -3
BITMAP
00000FF00000
00007FFE0000
0000FFFF0000
0003F81FC000
0007C003E000
000F8001F000
01FF0000FF80
07FE00007FE0
0FFC00003FF0
1F08000020F8
3C000000003C
78000000001E
70000000000E
F0000000000F
E00000000007
E00000000007
E00000000007
E00000000007
E00000000007
F0000000000F
70000000000E
78000000001E
3C000000003C
1F070000E0F8
0FFF8001FFF0
07FFC003FFE0
01FFF81FFF80
0000FFFF0000
00007FFE0000
00800FF00000
08C000000000
0F8001000000
07F003800100
06F003800310
1EC0038001F0
1FC077DC0FE0
03E0FFFE0F60
03207FFC0278
02003E7803F8
00001C3007C0
00001E7004C0
00007FFC0040
0000FFFE0000
0000FFFE0000
0000638C0000
000003800000
000003800000
000003800000
ENDCHAR
STARTCHAR X
ENCODING 88
SWIDTH 1000 0
DWIDTH 48 0
BBX 48 48 0 -3
BITMAP
00000FF00000
00007FFE0000
0000FFFF0000
0003F01FC000
0007C003E000
000F8001F000
01FF0000FF80
07FE00007FE0
0FFC00003FF0
1F00000000F8
3C000000003C
78000000001E
70000000000E
F0000000000F
E00000000007
E00000000007
E00000000007
E00000000007
E00000000007
F0000000000F
70000000000E
78000000001E
3C000000003C
1F070000E0F8
0FFF8001FFF0
07FFC003FFE0
01FFF81FFF80
0000FFFF0000
00007FFE0000
00000FF00000
01E000000780
03F000000FC0
03F000000FC0
03F003C00FC0
03F007E00FC0
01E007E00780
000007E00000
000007E00000
000003C00000
000000000000
000000000000
000000000000
00078001E000
000FC003F000
000FC003F000
000FC003F000
000FC003F000
00078001E000
ENDCHAR
STARTCHAR Y
ENCODING 89
SWIDTH 1000 0
DWIDTH 49 0
BBX 48 38 0 -3
BITMAP
0000003FC000
000000FFF000
000003FFFC00
000007C03E00
00003F801FC0
0000FF000FF0
0003FE0007FC
0003C000003C
00078FF0001E
00077FFE000F
000EFFFF0007
000FF01FC007
000FC003E007
000F8001F007
01FF0000FF87
07FE00007FEE
0FFC00003FFE
1F08000020FC
3C000000003C
78000000001E
70000000000E
F0000000000F
E00000000007
E00000000007
E00000000007
E00000000007
E00000000007
F0000000000F
70000000000E
78000000001E
3C000000003C
1F070000E0F8
0FFF8001FFF0
07FFC003FFE0
01FFF81FFF80
0000FFFF0000
00007FFE0000
00000FF00000
ENDCHAR
STARTCHAR Z
ENCODING 90
SWIDTH 1000 0
DWIDTH 49 0
BBX 48 48 0 -3
BITMAP
0000003FC000
000000FFF000
000003FFFC00
000007C03E00
00003F801FC0
0000FF000FF0
0003FE0007FC
0003C000003C
00078FF0001E
00077FFE000F
000EFFFF0007
000FF01FC007
000FC003E007
000F8001F007
01FF0000FF87
07FE00007FEE
0FFC00003FFE
1F08000020FC
3C000000003C
78000000001E
70000000000E
F0000000000F
E00000000007
E00000000007
E00000000007
E00000000007
E00000000007
F0000000000F
70000000000E
78000000001E
3C000000003C
1F070000E0F8
0FFF8001FFF0
07FFC003FFE0
01FFF81FFF80
0000FFFF0000
00007FFE0000
00000FF00000
00001F000000
00003F800000
00000FC00000
000007E00000
000007C00000
00000F800000
00000E000000
00001C000000
000010000000
000020000000
ENDCHAR
STARTCHAR .notdef
ENCODING -1
SWIDTH 1000 0
DWIDTH 48 0
BBX 1 1 0 0
BITMAP
00
ENDCHAR
STARTCHAR NULL
ENCODING -1
SWIDTH 0 0
DWIDTH 0 0
BBX 1 1 0 0
BITMAP
00
ENDCHAR
STARTCHAR nonmarkingreturn
ENCODING -1
SWIDTH 1000 0
DWIDTH 48 0
BBX 1 1 0 0
BITMAP
00
ENDCHAR
ENDFONT
